<svg enable-background="new 0 0 30 30" viewBox="0 0 30 30" xmlns="http://www.w3.org/2000/svg"><path d="m26.2 6.4h-1.1v-2.2c0-1.2-1-2.3-2.3-2.3h-15.7c-1.2 0-2.3 1-2.3 2.3v2.3h-1.1c-.6-.1-1.1.5-1.1 1.1v4.5c0 .6.5 1.1 1.1 1.1s1.1-.5 1.1-1.1v11.3c0 .8.5 1.6 1.1 1.9v1.4c0 1.3 1.1 2.3 2.3 2.3s2.3-1 2.3-2.3v-1.1h9v1.1c0 1.2 1 2.3 2.3 2.3 1.2 0 2.3-1 2.3-2.3v-1.4c.7-.4 1.1-1.1 1.1-1.9v-11.3c0 .6.5 1.1 1.1 1.1s1.1-.5 1.1-1.1v-4.5c0-.6-.5-1.2-1.2-1.2zm-14.6-2.2h6.8c.6 0 1.1.5 1.1 1.1s-.5 1.1-1.1 1.1h-6.8c-.6 0-1.1-.5-1.1-1.1s.5-1.1 1.1-1.1zm-4 19.2c-.9 0-1.7-.8-1.7-1.7s.8-1.7 1.7-1.7 1.7.8 1.7 1.7-.7 1.7-1.7 1.7zm11.9-1.2h-9v-1.1h9zm2.8 1.2c-.9 0-1.7-.8-1.7-1.7s.8-1.7 1.7-1.7 1.7.8 1.7 1.7-.8 1.7-1.7 1.7zm1.7-14.7v5.6c0 1.2-1 2.3-2.3 2.3h-13.5c-1.2 0-2.3-1-2.3-2.3v-5.6-2.3h3.5c.2.7.9 1.1 1.6 1.1h7.9c.7 0 1.4-.5 1.6-1.1h3.5z" fill="#222221"/></svg>