<?xml version="1.0" encoding="UTF-8"?>
<!-- Source: https://github.com/CanalTP/navitia-playground/  -->
<svg version="1.0" xmlns="http://www.w3.org/2000/svg" xmlns:xlink="http://www.w3.org/1999/xlink" x="0px" y="0px" viewBox="0 0 30 30" style="enable-background:new 0 0 30 30;" xml:space="preserve">
<style type="text/css">
	.st0{fill:#222221;}
	.st1{display:none;}
	.st2{display:inline;fill:#222221;}
	.st3{display:inline;}
</style>
<g id="bus_1_">
	<path class="st0" d="M26.2,6.4h-1.1V4.2c0-1.2-1-2.3-2.3-2.3H7.1c-1.2,0-2.3,1-2.3,2.3v2.3H3.7C3.1,6.4,2.6,7,2.6,7.6v4.5   c0,0.6,0.5,1.1,1.1,1.1s1.1-0.5,1.1-1.1v11.3c0,0.8,0.5,1.6,1.1,1.9v1.4C5.9,28,7,29,8.2,29s2.3-1,2.3-2.3v-1.1h9v1.1   c0,1.2,1,2.3,2.3,2.3c1.2,0,2.3-1,2.3-2.3v-1.4c0.7-0.4,1.1-1.1,1.1-1.9V12.1c0,0.6,0.5,1.1,1.1,1.1s1.1-0.5,1.1-1.1V7.6   C27.4,7,26.9,6.4,26.2,6.4z M11.6,4.2h6.8c0.6,0,1.1,0.5,1.1,1.1c0,0.6-0.5,1.1-1.1,1.1h-6.8c-0.6,0-1.1-0.5-1.1-1.1   C10.5,4.7,11,4.2,11.6,4.2z M7.6,23.4c-0.9,0-1.7-0.8-1.7-1.7c0-0.9,0.8-1.7,1.7-1.7s1.7,0.8,1.7,1.7C9.3,22.6,8.6,23.4,7.6,23.4z    M19.5,22.2h-9v-1.1h9V22.2z M22.3,23.4c-0.9,0-1.7-0.8-1.7-1.7c0-0.9,0.8-1.7,1.7-1.7s1.7,0.8,1.7,1.7   C24,22.6,23.2,23.4,22.3,23.4z M24,8.7v5.6c0,1.2-1,2.3-2.3,2.3H8.2c-1.2,0-2.3-1-2.3-2.3V8.7V6.4h3.5c0.2,0.7,0.9,1.1,1.6,1.1h7.9   c0.7,0,1.4-0.5,1.6-1.1H24V8.7z"/>
</g>
</svg>
