<svg height="24" width="24" xmlns="http://www.w3.org/2000/svg"><g transform="translate(0 -1028.4)"><path d="m12.031 1030.4c-3.8657 0-6.9998 3.1-6.9998 7 0 1.3.4017 2.6 1.0938 3.7.0334.1.059.1.0938.2l4.3432 8c.204.6.782 1.1 1.438 1.1s1.202-.5 1.406-1.1l4.844-8.7c.499-1 .781-2.1.781-3.2 0-3.9-3.134-7-7-7zm-.031 3.9c1.933 0 3.5 1.6 3.5 3.5 0 2-1.567 3.5-3.5 3.5s-3.5-1.5-3.5-3.5c0-1.9 1.567-3.5 3.5-3.5z" fill="#c0392b"/><path d="m12.031 1.0312c-3.8657 0-6.9998 3.134-6.9998 7 0 1.383.4017 2.6648 1.0938 3.7498.0334.053.059.105.0938.157l4.3432 8.062c.204.586.782 1.031 1.438 1.031s1.202-.445 1.406-1.031l4.844-8.75c.499-.963.781-2.06.781-3.2188 0-3.866-3.134-7-7-7zm-.031 3.9688c1.933 0 3.5 1.567 3.5 3.5s-1.567 3.5-3.5 3.5-3.5-1.567-3.5-3.5 1.567-3.5 3.5-3.5z" fill="#e74c3c" transform="translate(0 1028.4)"/></g></svg>