<?xml version="1.0" encoding="UTF-8"?>
<!-- Source: https://github.com/CanalTP/navitia-playground/ -->
<svg version="1.1" id="Calque_1" xmlns="http://www.w3.org/2000/svg" xmlns:xlink="http://www.w3.org/1999/xlink" x="0px" y="0px" width="24px" height="24px" viewBox="0 0 24 24" style="enable-background:new 0 0 24 24;" xml:space="preserve">
<style type="text/css">
	.st0{fill:#353535;}
</style>
<g>
	<path class="st0" d="M18,11.8l-2.5-1.9l-1.8-3.8c-0.2-0.5-0.8-0.9-1.4-0.9c-0.4,0-0.7,0.1-1,0.3c0,0-4,3.3-4,3.3   C7.1,9,7,9.2,6.9,9.5L6.3,13c-0.1,0.6,0.3,1.1,0.8,1.2c0.1,0,0.1,0,0.2,0c0.5,0,0.9-0.3,1-0.8l0.6-3.2L10.3,9l-0.9,3.4l-1.3,5   l-2.6,4c-0.4,0.6-0.2,1.3,0.3,1.7c0.2,0.1,0.4,0.2,0.7,0.2c0.4,0,0.8-0.2,1-0.5l2.8-4.1c0.1-0.2,0.2-0.2,0.2-0.4l0.8-3l2.3,2.6   l1.1,4.7c0.1,0.6,0.6,1,1.2,1c0.1,0,0.2,0,0.3,0c0.7-0.2,1.1-0.8,0.9-1.5L16,17.4c-0.1-0.4-0.2-0.6-0.4-0.8l-2.8-3.2l0.7-2.8   l0.3,0.6c0.1,0.2,0.2,0.3,0.3,0.4l2.8,2c0.5,0.3,1.1,0.2,1.4-0.2C18.6,12.8,18.5,12.2,18,11.8z"/>
	<circle class="st0" cx="13" cy="2.7" r="2.2"/>
</g>
</svg>
