<svg enable-background="new 0 0 24 24" height="24" viewBox="0 0 24 24" width="24" xmlns="http://www.w3.org/2000/svg"><g fill="#353535"><path d="m18 11.8-2.5-1.9-1.8-3.8c-.2-.5-.8-.9-1.4-.9-.4 0-.7.1-1 .3 0 0-4 3.3-4 3.3-.2.2-.3.4-.4.7l-.6 3.5c-.1.6.3 1.1.8 1.2h.2c.5 0 .9-.3 1-.8l.6-3.2 1.4-1.2-.9 3.4-1.3 5-2.6 4c-.4.6-.2 1.3.3 1.7.2.1.4.2.7.2.4 0 .8-.2 1-.5l2.8-4.1c.1-.2.2-.2.2-.4l.8-3 2.3 2.6 1.1 4.7c.1.6.6 1 1.2 1h.3c.7-.2 1.1-.8.9-1.5l-1.1-4.7c-.1-.4-.2-.6-.4-.8l-2.8-3.2.7-2.8.3.6c.1.2.2.3.3.4l2.8 2c.5.3 1.1.2 1.4-.2.3-.6.2-1.2-.3-1.6z"/><circle cx="13" cy="2.7" r="2.2"/></g></svg>